<svg width="41" height="43" viewBox="0 0 41 43" fill="none" xmlns="http://www.w3.org/2000/svg">
<g clip-path="url(#clip0_56_2925)">
<path d="M22.3073 3.51514L24.8479 4.3939L22.3073 5.27266V3.51514ZM24.0011 31.6355L25.6948 40.4232H22.3073L24.0011 31.6355ZM24.0011 28.9992L27.3885 40.4232H20.6136L24.0011 28.9992ZM20.6136 10.5452L35.8571 19.3329V22.8479H5.37012V19.3329L20.6136 10.5452ZM7.9107 22.8479H33.3165C33.3165 30.1709 35.8571 40.4232 35.8571 40.4232H5.37012C5.37012 40.4232 7.9107 30.1709 7.9107 22.8479ZM7.9107 22.8479H33.3165C33.3165 30.1709 35.8571 40.4232 35.8571 40.4232H5.37012C5.37012 40.4232 7.9107 30.1709 7.9107 22.8479Z" stroke="#8B0000" stroke-width="6.66667"/>
</g>
<defs>
<clipPath id="clip0_56_2925">
<rect width="40.6493" height="42.1806" fill="white" transform="translate(0.289062)"/>
</clipPath>
</defs>
</svg>