<svg width="46" height="47" viewBox="0 0 46 47" fill="none" xmlns="http://www.w3.org/2000/svg">
<path d="M40.8241 40.828C41.1344 40.828 41.428 40.6836 41.6235 40.4345C41.8189 40.1855 41.8951 39.8588 41.831 39.5453L41.1829 36.3775C41.552 36.0087 41.784 35.4938 41.784 34.9213C41.784 34.3186 41.5241 33.7841 41.1208 33.4127V22.4122L38.5229 24.0727V33.4127C38.1196 33.7841 37.8596 34.3186 37.8596 34.9213C37.8596 35.4939 38.0917 36.0088 38.4608 36.3775L37.8126 39.5453C37.7485 39.8588 37.8248 40.1855 38.0201 40.4345C38.2156 40.6835 38.5092 40.828 38.8195 40.828H40.8241ZM41.7046 15.993L24.8042 5.18687C24.3092 4.87195 23.7513 4.71387 23.1933 4.71387C22.6353 4.71387 22.077 4.87182 21.585 5.18687L4.68436 15.993C4.23307 16.2814 3.95898 16.7908 3.95898 17.3391C3.95898 17.8874 4.23307 18.397 4.68436 18.6859L21.585 29.4921C22.0769 29.8074 22.6353 29.9651 23.1932 29.9651C23.7512 29.9651 24.3092 29.8072 24.8041 29.4921L41.7046 18.6859C42.1559 18.3972 42.43 17.8874 42.43 17.3391C42.43 16.7908 42.1559 16.2812 41.7046 15.993ZM23.1932 32.6483C22.1405 32.6483 21.113 32.3463 20.2174 31.7737L10.3592 25.4699V36.3245C10.3592 39.5371 16.1079 42.1377 23.1932 42.1377C30.2811 42.1377 36.0294 39.537 36.0294 36.3245V25.4699L26.1716 31.7737C25.2759 32.3463 24.246 32.6483 23.1932 32.6483Z" fill="#4169E1"/>
</svg>
