<svg width="39" height="40" viewBox="0 0 39 40" fill="none" xmlns="http://www.w3.org/2000/svg">
<g clip-path="url(#clip0_56_2938)">
<path d="M23.8261 25.0941C22.9163 24.2399 22.1874 23.1857 21.7036 21.9979H6.40268C5.35835 21.9979 4.54683 21.1292 4.54683 20.0521V6.36722C4.54683 5.29006 5.35835 4.40349 6.40268 4.40349H27.6088C28.6548 4.40349 29.5324 5.29006 29.5324 6.36722V9.81651C29.5447 9.81651 29.553 9.81651 29.5645 9.81651C30.717 9.81651 31.8183 10.0547 32.823 10.4844V6.36722C32.823 3.37739 30.5082 0.921875 27.6088 0.921875H6.40268C3.50167 0.921875 1.16699 3.37824 1.16699 6.36722V20.0538C1.16699 23.0427 3.5025 25.4812 6.40268 25.4812H9.54806C9.73051 27.04 11.0539 28.323 12.6629 28.323H20.5123C20.6097 28.1784 20.7096 28.0354 20.8136 27.8959C21.6557 26.7609 22.6786 25.8165 23.8261 25.0941Z" fill="#800080"/>
<path d="M16.9505 20.4691C17.417 20.4691 17.7951 20.0786 17.7951 19.5978V18.6543C19.7508 18.2986 20.862 16.9466 20.862 15.3624C20.862 13.762 20.0257 12.7835 17.9734 12.0356C16.5064 11.4673 15.9013 11.0937 15.9013 10.5058C15.9013 10.0081 16.2637 9.50949 17.3864 9.50949C18.0395 9.50949 18.5686 9.62265 18.988 9.75794C19.2225 9.83366 19.4768 9.80643 19.6914 9.68391C19.906 9.56139 20.0612 9.35294 20.1215 9.10875L20.1744 8.89689C20.2949 8.41532 20.0274 7.92183 19.5651 7.78315C19.1102 7.64786 18.5942 7.54832 17.8834 7.51683V6.8234C17.8834 6.34268 17.5053 5.95215 17.0389 5.95215C16.5724 5.95215 16.1935 6.34183 16.1935 6.8234V7.64191C14.3269 8.01457 13.2686 9.24318 13.2686 10.8087C13.2686 12.5342 14.5251 13.4233 16.3718 14.064C17.6514 14.5099 18.2004 14.9361 18.2004 15.6117C18.2004 16.3238 17.5268 16.7144 16.5419 16.7144C15.8303 16.7144 15.1607 16.5646 14.5812 16.3502C14.3443 16.2634 14.0826 16.2813 13.8605 16.403C13.6368 16.5246 13.4749 16.7365 13.4122 16.9883L13.3445 17.264C13.2273 17.7269 13.484 18.2042 13.9232 18.3624C14.5424 18.5837 15.306 18.7428 16.1052 18.7793V19.5978C16.1052 20.0786 16.4833 20.4691 16.9505 20.4691Z" fill="#800080"/>
<path d="M37.9889 33.6338C37.3656 28.8393 33.0925 25.4709 28.4413 26.1107C23.7885 26.7488 20.5209 31.1544 21.1409 35.9489L21.1797 36.2569C21.4257 38.1577 23.0001 39.5922 24.8609 39.5922H34.2689C36.1306 39.5922 37.7049 38.1577 37.9509 36.2569L37.9897 35.9557C38.0805 35.2197 38.0871 34.4063 37.9889 33.6338Z" fill="#800080"/>
<path d="M29.5644 24.794C32.8818 24.794 35.5711 22.0223 35.5711 18.6033C35.5711 15.1843 32.8818 12.4126 29.5644 12.4126C26.2469 12.4126 23.5576 15.1843 23.5576 18.6033C23.5576 22.0223 26.2469 24.794 29.5644 24.794Z" fill="#800080"/>
</g>
<defs>
<clipPath id="clip0_56_2938">
<rect width="37.5224" height="38.6713" fill="white" transform="translate(0.852539 0.921875)"/>
</clipPath>
</defs>
</svg>
