<svg width="43" height="36" viewBox="0 0 43 36" fill="none" xmlns="http://www.w3.org/2000/svg">
<g clip-path="url(#clip0_56_2956)">
<path d="M19.7838 0.610472C19.0888 0.618419 18.3939 1.01883 18.3939 1.85224V11.864C11.1835 12.2711 8.66459 15.6623 8.66459 17.9953H30.903C30.903 15.6623 28.3841 12.2711 21.1737 11.864V1.85224C21.1737 0.987078 20.4787 0.602535 19.7838 0.610472ZM22.5636 0.610472V8.0611H33.6828L28.1232 4.33578L33.6828 0.610472H22.5636ZM3.10499 20.4788V22.9623H5.88479V32.8965H3.10499L0.325195 35.3801H39.2424L36.4626 32.8965H33.6828V22.9623H36.4626V20.4788H3.10499ZM11.4444 22.9623H14.2242V32.8965H11.4444V22.9623ZM17.004 22.9623H22.5636V32.8965H17.004V22.9623ZM25.3434 22.9623H28.1232V32.8965H25.3434V22.9623Z" fill="#000080"/>
</g>
<defs>
<clipPath id="clip0_56_2956">
<rect width="42.5206" height="34.7697" fill="white" transform="translate(0.325195 0.610352)"/>
</clipPath>
</defs>
</svg>
