<svg width="36" height="34" viewBox="0 0 36 34" fill="none" xmlns="http://www.w3.org/2000/svg">
<path d="M30.0965 29.1481H27.8979V31.1622H23.5008V29.1481H11.4086V31.1622H7.01142V29.1481H4.81284C3.59812 29.1481 2.61426 28.2168 2.61426 27.0695V9.40151C2.61426 8.25309 3.59812 7.32292 4.81284 7.32292H30.0965C31.3101 7.32292 32.2951 8.25413 32.2951 9.40151V27.0695C32.2951 28.2179 31.3101 29.1481 30.0965 29.1481ZM23.4997 16.6766H19.1036V12.5194H15.8057V16.6766H11.4086V19.7944H15.8057V23.9516H19.1036V19.7944H23.4997V16.6766ZM21.3022 4.18322H14.7065V6.28363H12.5079V5.26617H13.6072V2.12646H22.3553V5.24434H23.5008V6.28363H21.3022V4.18322Z" fill="#00FF00"/>
</svg>
