<svg width="36" height="38" viewBox="0 0 36 38" fill="none" xmlns="http://www.w3.org/2000/svg">
<g clip-path="url(#clip0_56_3009)">
<path d="M34.823 4.04261C34.7794 3.39393 34.2682 2.8914 33.6522 2.8914H28.9565C28.3405 2.8914 27.8293 3.39401 27.7857 4.04261L26.6897 20.2392H23.4072L22.3021 1.57483C22.2631 0.922152 21.7503 0.413086 21.1305 0.413086H16.4348C15.815 0.413086 15.3021 0.922152 15.2632 1.57483L14.1581 20.2392H9.39136V17.761H10.5653C11.2134 17.761 11.7392 17.2059 11.7392 16.5218C11.7392 15.8377 11.2134 15.2827 10.5653 15.2827C6.05426 15.2827 5.68505 15.2827 1.17401 15.2827C0.525867 15.2827 0 15.8377 0 16.5218C0 17.2059 0.525867 17.761 1.17394 17.761H2.34787V20.2392H1.17394C0.525867 20.2392 0 20.7942 0 21.4783V36.3479C0 37.032 0.525867 37.587 1.17394 37.587H34.8261C35.4742 37.587 36.0001 37.032 36.0001 36.3479V21.4783C36 21.4143 34.8273 4.10643 34.823 4.04261ZM17.2441 7.84787H20.321L20.4678 10.3261H17.0974L17.2441 7.84787ZM30.913 31.3914C30.913 32.0755 30.3872 32.6306 29.7391 32.6306H6.26091C5.61284 32.6306 5.08697 32.0755 5.08697 31.3914V26.4348C5.08697 25.7508 5.61284 25.1957 6.26091 25.1957H29.7392C30.3872 25.1957 30.9131 25.7508 30.9131 26.4348V31.3914H30.913ZM29.5465 12.8044L29.7141 10.3262H32.8945L33.0621 12.8044H29.5465Z" fill="#808080"/>
<path d="M24.7988 27.6738H19.1738V33.6113H24.7988V27.6738Z" fill="#808080"/>
<path d="M18.9297 27.6738H13.3047V33.6113H18.9297V27.6738Z" fill="#808080"/>
<path d="M13.0596 27.6738H7.43457V33.6113H13.0596V27.6738Z" fill="#808080"/>
<path d="M30.6689 27.6738H25.0439V33.6113H30.6689V27.6738Z" fill="#808080"/>
</g>
<defs>
<clipPath id="clip0_56_3009">
<rect width="36" height="38" fill="white"/>
</clipPath>
</defs>
</svg>
