<svg width="43" height="41" viewBox="0 0 43 41" fill="none" xmlns="http://www.w3.org/2000/svg">
<g clip-path="url(#clip0_56_2996)">
<path d="M1.9149 7.49609C1.07065 7.49609 0.507812 8.02202 0.507812 8.81092V28.5333V33.7926C0.507812 34.5815 1.07065 35.1074 1.9149 35.1074C2.75916 35.1074 3.322 34.5815 3.322 33.7926V29.8481H39.9064V33.7926C39.9064 34.5815 40.4692 35.1074 41.3135 35.1074C42.1577 35.1074 42.7206 34.5815 42.7206 33.7926V28.5333C42.7206 27.7444 42.1577 27.2185 41.3135 27.2185H3.322V8.81092C3.322 8.02202 2.75916 7.49609 1.9149 7.49609ZM10.3575 8.81092C8.10611 8.81092 6.13618 10.6517 6.13618 12.7554C6.13618 14.8591 8.10611 16.6999 10.3575 16.6999C12.6088 16.6999 14.5787 14.8591 14.5787 12.7554C14.5787 10.6517 12.6088 8.81092 10.3575 8.81092ZM20.2071 11.4406C15.9858 11.4406 15.9858 15.385 15.9858 15.385V19.3295H7.54327C6.69902 19.3295 6.13618 19.8554 6.13618 20.6443V23.274C6.13618 24.0629 6.69902 24.5888 7.54327 24.5888H17.3929H42.7206V18.0147C42.7206 11.4406 35.6851 11.4406 35.6851 11.4406H20.2071Z" fill="#8B4513"/>
</g>
<defs>
<clipPath id="clip0_56_2996">
<rect width="42.2128" height="39.4447" fill="white" transform="translate(0.507812 0.921875)"/>
</clipPath>
</defs>
</svg>
