<svg width="35" height="41" viewBox="0 0 35 41" fill="none" xmlns="http://www.w3.org/2000/svg">
<path d="M11.6936 1.69531H5.70745C4.64889 1.7116 3.63852 2.21527 2.89554 3.09706C2.15256 3.97885 1.73689 5.16762 1.73873 6.40548V10.7985C1.73083 11.4138 1.82766 12.0247 2.02357 12.5958C2.21948 13.1669 2.51056 13.6867 2.87988 14.125C3.2492 14.5633 3.68938 14.9114 4.17481 15.1489C4.66024 15.3865 5.18122 15.5088 5.70745 15.5087H11.6936C12.2198 15.5088 12.7408 15.3865 13.2262 15.1489C13.7117 14.9114 14.1519 14.5633 14.5212 14.125C14.8905 13.6867 15.1816 13.1669 15.3775 12.5958C15.5734 12.0247 15.6702 11.4138 15.6623 10.7985V6.40548C15.6702 5.79024 15.5734 5.17931 15.3775 4.60823C15.1816 4.03715 14.8905 3.51733 14.5212 3.07902C14.1519 2.6407 13.7117 2.29264 13.2262 2.05509C12.7408 1.81754 12.2198 1.69524 11.6936 1.69531ZM9.53726 11.7499H7.89025C7.17801 11.7499 6.49494 11.419 5.99131 10.8301C5.48768 10.2413 5.20474 9.44255 5.20474 8.60974C5.20474 7.77693 5.48768 6.97824 5.99131 6.38935C6.49494 5.80047 7.17801 5.46963 7.89025 5.46963H9.53726C10.2495 5.46963 10.9326 5.80047 11.4362 6.38935C11.9398 6.97824 12.2228 7.77693 12.2228 8.60974C12.2228 9.44255 11.9398 10.2413 11.4362 10.8301C10.9326 11.419 10.2495 11.7499 9.53726 11.7499Z" fill="#006400"/>
<path d="M23.183 15.5087H29.1361C29.6623 15.5088 30.1833 15.3865 30.6688 15.1489C31.1542 14.9114 31.5944 14.5633 31.9637 14.125C32.333 13.6867 32.6241 13.1669 32.82 12.5958C33.0159 12.0247 33.1127 11.4138 33.1048 10.7985V6.40548C33.1127 5.79024 33.0159 5.17931 32.82 4.60823C32.6241 4.03715 32.333 3.51733 31.9637 3.07902C31.5944 2.6407 31.1542 2.29264 30.6688 2.05509C30.1833 1.81754 29.6623 1.69524 29.1361 1.69531H23.183C22.6568 1.69524 22.1358 1.81754 21.6504 2.05509C21.165 2.29264 20.7248 2.6407 20.3555 3.07902C19.9861 3.51733 19.6951 4.03715 19.4992 4.60823C19.3032 5.17931 19.2064 5.79024 19.2143 6.40548V10.7985C19.2064 11.4138 19.3032 12.0247 19.4992 12.5958C19.6951 13.1669 19.9861 13.6867 20.3555 14.125C20.7248 14.5633 21.165 14.9114 21.6504 15.1489C22.1358 15.3865 22.6568 15.5088 23.183 15.5087ZM25.3328 5.45416H26.9798C27.692 5.45416 28.3751 5.785 28.8787 6.37388C29.3823 6.96277 29.6653 7.76147 29.6653 8.59428C29.6653 9.42708 29.3823 10.2258 28.8787 10.8147C28.3751 11.4036 27.692 11.7344 26.9798 11.7344H25.3328C24.6205 11.7344 23.9375 11.4036 23.4338 10.8147C22.9302 10.2258 22.6473 9.42708 22.6473 8.59428C22.6473 7.76147 22.9302 6.96277 23.4338 6.37388C23.9375 5.785 24.6205 5.45416 25.3328 5.45416Z" fill="#006400"/>
<path d="M11.6942 19.2754H5.708C4.64945 19.2917 3.63908 19.7954 2.89609 20.6771C2.15311 21.5589 1.73745 22.7477 1.73928 23.9856V28.3864C1.73573 29.6241 2.15105 30.8132 2.89459 31.6942C3.63812 32.5752 4.6495 33.0765 5.708 33.0888H11.6942C12.7527 33.0765 13.764 32.5752 14.5076 31.6942C15.2511 30.8132 15.6664 29.6241 15.6629 28.3864V23.9856C15.6708 23.3703 15.5739 22.7594 15.378 22.1883C15.1821 21.6172 14.891 21.0974 14.5217 20.6591C14.1524 20.2208 13.7122 19.8727 13.2268 19.6352C12.7414 19.3976 12.2204 19.2753 11.6942 19.2754ZM9.53782 29.3299H7.8908C7.17856 29.3299 6.49549 28.9991 5.99186 28.4102C5.48823 27.8213 5.2053 27.0226 5.2053 26.1898C5.2053 25.357 5.48823 24.5583 5.99186 23.9694C6.49549 23.3805 7.17856 23.0497 7.8908 23.0497H9.53782C10.2501 23.0497 10.9331 23.3805 11.4368 23.9694C11.9404 24.5583 12.2233 25.357 12.2233 26.1898C12.2233 27.0226 11.9404 27.8213 11.4368 28.4102C10.9331 28.9991 10.2501 29.3299 9.53782 29.3299Z" fill="#006400"/>
<path d="M26.332 19.2754C22.3632 19.2754 19.1816 22.7326 19.1816 27.0483C19.1816 32.4159 24.3013 37.3349 25.8822 38.6497C26.0171 38.7701 26.1821 38.8354 26.3518 38.8354C26.5215 38.8354 26.6865 38.7701 26.8214 38.6497C28.4023 37.273 33.4889 32.4159 33.4889 27.0483C33.4889 22.7326 30.2874 19.2754 26.332 19.2754ZM26.332 30.258C25.5644 30.2895 24.8173 29.9648 24.2535 29.3549C23.6897 28.745 23.355 27.8992 23.3223 27.0019C23.3838 26.1169 23.7279 25.2914 24.2861 24.6896C24.8444 24.0877 25.5759 23.7535 26.3353 23.7535C27.0946 23.7535 27.8261 24.0877 28.3844 24.6896C28.9426 25.2914 29.2867 26.1169 29.3482 27.0019C29.3155 27.9006 28.9799 28.7476 28.4147 29.3577C27.8495 29.9679 27.1007 30.2916 26.332 30.258Z" fill="#006400"/>
</svg>
