<svg width="34" height="36" viewBox="0 0 34 36" fill="none" xmlns="http://www.w3.org/2000/svg">
<g clip-path="url(#clip0_56_3067)">
<path d="M32.1746 34.494H1.38379V4.16042C1.38379 3.99118 1.51142 3.854 1.6689 3.854H31.8895C32.047 3.854 32.1746 3.99118 32.1746 4.16042V34.494Z" fill="#FFD782"/>
<path d="M6.55025 28.9795H1.38281V34.533H6.55025V28.9795Z" fill="#FFAF5F"/>
<path d="M32.174 14.8319C32.0572 14.8631 31.937 14.8846 31.8111 14.8846C30.9809 14.8846 30.3079 14.1613 30.3079 13.269C30.3079 14.1612 29.6348 14.8846 28.8046 14.8846C27.9744 14.8846 27.3013 14.1613 27.3013 13.269C27.3013 14.1612 26.6283 14.8846 25.798 14.8846C24.9678 14.8846 24.2948 14.1613 24.2948 13.269C24.2948 14.1612 23.6217 14.8846 22.7915 14.8846C21.9613 14.8846 21.2882 14.1613 21.2882 13.269C21.2882 14.1612 20.6152 14.8846 19.785 14.8846C18.9547 14.8846 18.2817 14.1613 18.2817 13.269C18.2817 14.1612 17.6087 14.8846 16.7784 14.8846C15.9481 14.8846 15.2751 14.1613 15.2751 13.269C15.2751 14.1612 14.6021 14.8846 13.7719 14.8846C12.9417 14.8846 12.2686 14.1613 12.2686 13.269C12.2686 14.1612 11.5956 14.8846 10.7653 14.8846C9.93511 14.8846 9.26205 14.1613 9.26205 13.269C9.26205 14.1612 8.58899 14.8846 7.75878 14.8846C6.92857 14.8846 6.25551 14.1613 6.25551 13.269C6.25551 14.1612 5.58245 14.8846 4.75224 14.8846C3.92203 14.8846 3.24897 14.1613 3.24897 13.269C3.24897 14.1612 2.57597 14.8846 1.7457 14.8846C1.61987 14.8846 1.49966 14.8631 1.38281 14.8319V16.0708C1.50257 16.0887 1.62142 16.1103 1.7457 16.1103C2.30371 16.1103 2.82188 15.9235 3.24897 15.6051C3.67618 15.9235 4.19428 16.1102 4.75237 16.1102C5.31039 16.1102 5.82855 15.9235 6.25564 15.6051C6.68273 15.9235 7.20089 16.1102 7.75891 16.1102C8.31693 16.1102 8.83509 15.9235 9.26218 15.6051C9.68927 15.9235 10.2074 16.1102 10.7655 16.1102C11.3235 16.1102 11.8416 15.9235 12.2687 15.6051C12.6958 15.9235 13.214 16.1102 13.772 16.1102C14.33 16.1102 14.8482 15.9235 15.2753 15.6051C15.7023 15.9235 16.2205 16.1102 16.7785 16.1102C17.3365 16.1102 17.8547 15.9235 18.2817 15.6051C18.7088 15.9235 19.227 16.1102 19.785 16.1102C20.343 16.1102 20.8612 15.9235 21.2883 15.6051C21.7154 15.9235 22.2335 16.1102 22.7916 16.1102C23.3496 16.1102 23.8677 15.9235 24.2948 15.6051C24.7219 15.9235 25.2401 16.1102 25.7981 16.1102C26.3561 16.1102 26.8743 15.9235 27.3014 15.6051C27.7285 15.9235 28.2466 16.1102 28.8046 16.1102C29.3627 16.1102 29.8808 15.9235 30.3079 15.6051C30.735 15.9235 31.2532 16.1102 31.8112 16.1102C31.9354 16.1102 32.0543 16.0887 32.1741 16.0708V14.8319H32.174Z" fill="#FFAF5F"/>
<path d="M20.1998 18.5615H4.23438V30.8174H20.1998V18.5615Z" fill="#B4E1FA"/>
<path d="M29.3238 18.5615H22.4814V30.8174H29.3238V18.5615Z" fill="#B4E1FA"/>
<path d="M29.3238 18.5615H22.4814V20.3999H29.3238V18.5615Z" fill="#A0D2F0"/>
<path d="M29.3232 24.2805L25.3318 18.561H24.1914L29.3232 25.9146V24.2805Z" fill="#DAF0FD"/>
<path d="M23.0516 18.561H22.4814V21.0122L29.3238 30.817V27.5487L23.0516 18.561Z" fill="#A0D2F0"/>
<path d="M26.6147 20.3994L25.3318 18.561H24.1914L25.4744 20.3994H26.6147Z" fill="#B4E1FA"/>
<path d="M18.4893 30.817H17.3489L8.7959 18.561H9.93629L18.4893 30.817Z" fill="#DAF0FD"/>
<path d="M16.2088 30.817H13.928L5.375 18.561H7.65584L16.2088 30.817Z" fill="#A0D2F0"/>
<path d="M20.1998 18.5615H4.23438V20.3999H20.1998V18.5615Z" fill="#A0D2F0"/>
<path d="M11.2192 20.3994L9.93629 18.561H8.7959L10.0788 20.3994H11.2192Z" fill="#B4E1FA"/>
<path d="M13.7728 14.8843C12.9426 14.8843 12.2695 14.161 12.2695 13.2687V11.8203H15.2761V13.2687C15.2761 14.161 14.603 14.8843 13.7728 14.8843Z" fill="#D2555A"/>
<path d="M19.7855 14.8843C18.9553 14.8843 18.2822 14.161 18.2822 13.2687V11.8203H21.2888V13.2687C21.2887 14.161 20.6157 14.8843 19.7855 14.8843Z" fill="#D2555A"/>
<path d="M7.75913 14.8843C6.92892 14.8843 6.25586 14.161 6.25586 13.2687V11.8203H9.2624V13.2687C9.26234 14.161 8.58934 14.8843 7.75913 14.8843Z" fill="#D2555A"/>
<path d="M1.74644 14.8843C0.916223 14.8843 0.243164 14.161 0.243164 13.2687V11.8203H3.24971V13.2687C3.24971 14.161 2.57665 14.8843 1.74644 14.8843Z" fill="#D2555A"/>
<path d="M25.7982 14.8843C24.968 14.8843 24.2949 14.161 24.2949 13.2687V11.8203H27.3015V13.2687C27.3015 14.161 26.6285 14.8843 25.7982 14.8843Z" fill="#D2555A"/>
<path d="M10.766 14.8843C9.93575 14.8843 9.2627 14.161 9.2627 13.2687V11.8203H12.2692V13.2687C12.2692 14.161 11.5962 14.8843 10.766 14.8843Z" fill="#C7CFE2"/>
<path d="M22.7923 14.8843C21.9621 14.8843 21.2891 14.161 21.2891 13.2687V11.8203H24.2956V13.2687C24.2956 14.161 23.6225 14.8843 22.7923 14.8843Z" fill="#C7CFE2"/>
<path d="M31.8119 14.8843C30.9817 14.8843 30.3086 14.161 30.3086 13.2687V11.8203H33.3151V13.2687C33.3151 14.161 32.6421 14.8843 31.8119 14.8843Z" fill="#D2555A"/>
<path d="M28.805 14.8843C27.9748 14.8843 27.3018 14.161 27.3018 13.2687V11.8203H30.3083V13.2687C30.3082 14.161 29.6352 14.8843 28.805 14.8843Z" fill="#C7CFE2"/>
<path d="M4.75327 14.8843C3.92306 14.8843 3.25 14.161 3.25 13.2687V11.8203H6.25654V13.2687C6.25654 14.161 5.58348 14.8843 4.75327 14.8843Z" fill="#C7CFE2"/>
<path d="M16.7796 14.8843C15.9494 14.8843 15.2764 14.161 15.2764 13.2687V11.8203H18.2829V13.2687C18.2829 14.161 17.6099 14.8843 16.7796 14.8843Z" fill="#C7CFE2"/>
<path d="M15.276 11.8204H12.2695L12.5805 6.91797H15.3797L15.276 11.8204Z" fill="#FF6464"/>
<path d="M21.2889 11.8204H18.2824L18.1787 6.91797H20.9779L21.2889 11.8204Z" fill="#FF6464"/>
<path d="M9.26234 11.8204H6.25586L6.98156 6.91797H9.7807L9.26234 11.8204Z" fill="#FF6464"/>
<path d="M3.24971 11.8204H0.243164L1.38355 6.91797H4.18275L3.24971 11.8204Z" fill="#FF6464"/>
<path d="M27.3022 11.8204H24.2957L23.7773 6.91797H26.5765L27.3022 11.8204Z" fill="#FF6464"/>
<path d="M12.2692 11.8204H9.2627L9.78105 6.91797H12.5803L12.2692 11.8204Z" fill="#EFF2FA"/>
<path d="M24.2951 11.8204H21.2886L20.9775 6.91797H23.7767L24.2951 11.8204Z" fill="#EFF2FA"/>
<path d="M33.3146 11.8204H30.308L29.375 6.91797H32.1742L33.3146 11.8204Z" fill="#FF6464"/>
<path d="M30.3084 11.8204H27.3019L26.5762 6.91797H29.3753L30.3084 11.8204Z" fill="#EFF2FA"/>
<path d="M6.25648 11.8204H3.25L4.18304 6.91797H6.98218L6.25648 11.8204Z" fill="#EFF2FA"/>
<path d="M18.2829 11.8204H15.2764L15.3801 6.91797H18.1792L18.2829 11.8204Z" fill="#EFF2FA"/>
<path d="M19.6297 19.1738V30.2042H4.80452V19.1738H19.6297ZM20.1999 17.9482H4.23429C3.9194 17.9482 3.66406 18.2227 3.66406 18.5611V30.8171C3.66406 31.1555 3.9194 31.4299 4.23429 31.4299H20.1999C20.5147 31.4299 20.7701 31.1555 20.7701 30.8171V18.5611C20.7701 18.2227 20.5148 17.9482 20.1999 17.9482Z" fill="#8F96AC"/>
<path d="M29.3228 17.9482H22.4804C22.1655 17.9482 21.9102 18.2227 21.9102 18.5611V33.8811H29.8929V18.5611C29.8929 18.2227 29.6377 17.9482 29.3228 17.9482ZM28.7526 30.2042H23.0505V19.1738H28.7526V30.2042Z" fill="#8F96AC"/>
<path d="M25.9024 6.91797H7.65601C7.02617 6.91797 6.51562 6.36929 6.51562 5.69239V2.01563C6.51562 1.33872 7.02617 0.790039 7.65601 0.790039H25.9024C26.5323 0.790039 27.0428 1.33872 27.0428 2.01563V5.69245C27.0428 6.36929 26.5323 6.91797 25.9024 6.91797Z" fill="#AFB9D2"/>
<path d="M25.6166 5.69238H7.94039C7.78291 5.69238 7.65527 5.55521 7.65527 5.38597V2.32204C7.65527 2.1528 7.78291 2.01562 7.94039 2.01562H25.6166C25.774 2.01562 25.9017 2.1528 25.9017 2.32204V5.38604C25.9017 5.55521 25.774 5.69238 25.6166 5.69238Z" fill="#FFD782"/>
<path d="M7.94039 5.69265H25.6166C25.774 5.69265 25.9017 5.55547 25.9017 5.38623V4.16064C25.9017 4.32989 25.774 4.46706 25.6166 4.46706H7.94039C7.78291 4.46706 7.65527 4.32989 7.65527 4.16064V5.38623C7.65534 5.55547 7.78297 5.69265 7.94039 5.69265Z" fill="#FFAF5F"/>
<path d="M33.0296 35.107H0.528277C0.3708 35.107 0.243164 34.9698 0.243164 34.8006V34.1878C0.243164 34.0185 0.3708 33.8813 0.528277 33.8813H33.0296C33.1871 33.8813 33.3147 34.0185 33.3147 34.1878V34.8006C33.3147 34.9698 33.1871 35.107 33.0296 35.107Z" fill="#8F96AC"/>
</g>
<defs>
<clipPath id="clip0_56_3067">
<rect width="33.0716" height="35.5424" fill="white" transform="translate(0.243164 0.177246)"/>
</clipPath>
</defs>
</svg>
