<svg width="46" height="46" viewBox="0 0 46 46" fill="none" xmlns="http://www.w3.org/2000/svg">
<g clip-path="url(#clip0_56_3036)">
<path d="M22.6675 18.1219C25.3324 18.1219 27.4713 15.9862 27.4713 13.3253C27.4713 10.6645 25.3499 8.52881 22.6675 8.52881C20.0025 8.52881 17.8636 10.6645 17.8636 13.3253C17.8636 15.9862 20.0201 18.1219 22.6675 18.1219ZM11.4993 32.0213H2.85588C0.0506995 32.0213 -0.107092 27.7499 2.90848 27.7499H10.3948L14.6902 21.4304C15.9526 19.6974 17.4077 18.8746 19.4415 18.8746H25.8408C27.8921 18.8746 29.3298 19.6273 30.5921 21.4304L34.905 27.7499H42.444C45.4595 27.7499 45.2842 32.0213 42.5492 32.0213H33.9057C33.2219 32.0213 32.3979 31.7762 31.907 31.041L28.6109 26.3495L28.5934 40.634H16.7941L16.7766 26.3495L13.4805 31.041C13.0071 31.7762 12.1831 32.0213 11.4993 32.0213Z" fill="#ADD8E6"/>
<path d="M3.52245 21.5002V22.498C3.52245 23.0582 3.06661 23.4959 2.5231 23.4959C1.9796 23.4959 1.52376 23.0582 1.52376 22.498V21.5002H0.524414V18.2617C0.524414 17.544 0.997788 16.9663 1.66402 16.7737L2.83869 14.0078C3.01401 13.6052 3.39972 13.3076 3.8731 13.3076H8.25619C8.72956 13.3076 9.11527 13.5877 9.2906 14.0078L10.4477 16.7737C11.0964 16.9488 11.5873 17.544 11.5873 18.2617V21.5002H10.5705V22.498C10.5705 23.0582 10.1146 23.4959 9.57112 23.4959C9.01008 23.4959 8.57177 23.0582 8.57177 22.498V21.5002H3.52245ZM2.59323 19.8897C3.15427 19.8897 3.59258 19.4346 3.59258 18.8919C3.59258 18.3492 3.13674 17.8941 2.59323 17.8941C2.04973 17.8941 1.57636 18.3317 1.57636 18.8919C1.57636 19.4521 2.0322 19.8897 2.59323 19.8897ZM10.4477 18.8919C10.4477 18.3317 9.99189 17.8941 9.44839 17.8941C8.90489 17.8941 8.44904 18.3492 8.44904 18.8919C8.44904 19.4346 8.90489 19.8897 9.44839 19.8897C9.99189 19.8897 10.4477 19.2595 10.4477 18.7168M9.08021 16.5812L8.18606 14.4455C8.15099 14.3404 8.0458 14.2704 7.92307 14.2704H4.17115C4.04842 14.2704 3.94323 14.3404 3.90816 14.4455L3.01401 16.5812C3.03154 16.5812 9.08021 16.5812 9.08021 16.5812Z" fill="#ADD8E6"/>
<path d="M44.4257 14.6728C45.2498 13.8501 44.1102 12.7998 43.3037 13.605L40.3582 16.5635L33.5732 14.7779L32.4336 15.9157L38.0264 18.8567L35.7472 21.1149L33.994 20.9048L33.0998 21.7976L35.081 22.8304L36.1329 24.8261L37.0271 23.9333L36.8167 22.2002L39.0784 19.942L41.9537 25.4913L43.0933 24.3534L41.3926 17.7013L44.4257 14.6728Z" fill="#ADD8E6"/>
</g>
<defs>
<clipPath id="clip0_56_3036">
<rect width="44.8829" height="44.8143" fill="white" transform="translate(0.173828 0.817383)"/>
</clipPath>
</defs>
</svg>
