<svg width="34" height="39" viewBox="0 0 34 39" fill="none" xmlns="http://www.w3.org/2000/svg">
<g clip-path="url(#clip0_254_4816)">
<path d="M10.8633 34.7082C6.31395 32.2382 3.05843 27.2032 2.55758 21.2498H0.470703C1.16633 31.0032 8.34518 38.6665 17.0961 38.6665L18.0144 38.619L12.7137 32.5865L10.8633 34.7082ZM12.1016 24.3532C11.8372 24.3532 11.6007 24.3057 11.3781 24.2265C11.1709 24.1466 10.9811 24.017 10.8216 23.8465C10.6686 23.6882 10.5434 23.4982 10.4599 23.2607C10.3764 23.039 10.3347 22.7857 10.3347 22.5165H8.52604C8.52604 23.0865 8.62343 23.6248 8.8182 24.0207C9.01298 24.4165 9.27732 24.8123 9.5973 25.1132C9.9312 25.3982 10.3068 25.6198 10.7381 25.7623C11.1555 25.9207 11.6007 25.9998 12.0737 25.9998C12.5885 25.9998 13.0754 25.9207 13.5067 25.7623C13.9519 25.604 14.3415 25.3665 14.6615 25.0657C14.9814 24.7648 15.2458 24.4165 15.4266 23.9257C15.6075 23.4665 15.7049 22.9598 15.7049 22.3898C15.7049 22.089 15.6771 21.7882 15.6075 21.5032C15.5379 21.2498 15.4406 20.949 15.2875 20.6957C15.1484 20.4582 14.9536 20.2207 14.731 20.0148C14.4945 19.809 14.2163 19.6665 13.8824 19.524C14.3864 19.2711 14.8161 18.859 15.1206 18.3365C15.2597 18.0832 15.3571 17.8615 15.4266 17.6082C15.4962 17.3548 15.524 17.1015 15.524 16.8482C15.524 16.2782 15.4406 15.7715 15.2736 15.3282C15.0788 14.9165 14.8701 14.5207 14.5641 14.2357C14.2858 13.9348 13.9102 13.7132 13.4928 13.5548C13.0615 13.4123 12.5885 13.3332 12.0737 13.3332C11.6007 13.3332 11.1138 13.4123 10.6825 13.5865C10.2651 13.7607 9.88947 13.9982 9.58339 14.299C9.29123 14.5998 9.05472 14.9165 8.87385 15.3598C8.7069 15.7715 8.62343 16.2148 8.62343 16.7057H10.4321C10.4321 16.4365 10.4738 16.199 10.5573 15.9932C10.6359 15.786 10.7548 15.602 10.9051 15.4548C11.0581 15.3123 11.2251 15.1857 11.4338 15.1065C11.6424 15.0273 11.8511 14.9798 12.1016 14.9798C12.6581 14.9798 13.0754 15.1382 13.3398 15.4707C13.6041 15.7873 13.7432 16.2465 13.7432 16.8323C13.7432 17.1173 13.6876 17.3707 13.6319 17.6082C13.5628 17.8346 13.4429 18.0365 13.2841 18.194C13.1311 18.3523 12.9363 18.479 12.7137 18.574C12.4911 18.669 12.2129 18.7165 11.9068 18.7165H10.8355V20.3473H11.9068C12.2129 20.3473 12.4911 20.379 12.7415 20.4582C12.992 20.5373 13.2006 20.664 13.3676 20.8223C13.5345 20.9965 13.6876 21.2023 13.7711 21.4557C13.8684 21.709 13.9102 22.0415 13.9102 22.3582C13.9102 23.0073 13.7432 23.4982 13.4232 23.8307C13.1033 24.1948 12.6581 24.3532 12.1016 24.3532ZM23.9967 14.9798C23.5515 14.4573 23.0229 14.0457 22.4107 13.7607C21.8125 13.4757 21.1308 13.3332 20.3795 13.3332H17.0961V25.9998H20.296C21.0612 25.9998 21.7707 25.8573 22.3968 25.5723C23.0229 25.2873 23.5655 24.8915 24.0107 24.369C24.4559 23.8465 24.8176 23.2132 25.0402 22.4848C25.2767 21.7407 25.4019 20.9173 25.4019 19.999V19.3657C25.4019 18.4473 25.2767 17.624 25.0402 16.8798C24.8176 16.1357 24.4419 15.5023 23.9967 14.9798ZM23.4263 19.9832C23.4263 20.6482 23.3846 21.2498 23.2594 21.7723C23.1203 22.2948 22.9255 22.754 22.6611 23.1182C22.3968 23.4823 22.0351 23.7673 21.6734 23.9573C21.2699 24.1473 20.8108 24.2423 20.296 24.2423H19.03V15.1065H20.3795C21.3812 15.1065 22.1464 15.4707 22.6611 16.199C23.1898 16.9273 23.4263 17.9723 23.4263 19.3498M17.0961 0.666504L16.1779 0.714004L21.4786 6.7465L23.3289 4.62484C27.8783 7.09484 31.1339 12.114 31.6208 18.0832H33.7077C33.012 8.32984 25.8471 0.666504 17.0961 0.666504Z" fill="white"/>
</g>
<defs>
<clipPath id="clip0_254_4816">
<rect width="33.39" height="38" fill="white" transform="translate(0.470703 0.666504)"/>
</clipPath>
</defs>
</svg>
