<svg width="41" height="36" viewBox="0 0 41 36" fill="none" xmlns="http://www.w3.org/2000/svg">
<path d="M39.4918 13.2082L14.7299 34.794C14.4658 35.0243 14.1523 35.2069 13.8072 35.3316C13.4621 35.4562 13.0923 35.5203 12.7188 35.5203C12.3453 35.5203 11.9755 35.4562 11.6304 35.3316C11.2853 35.2069 10.9718 35.0243 10.7077 34.794L1.34291 26.6313C1.07878 26.4011 0.869248 26.1278 0.726295 25.827C0.583343 25.5262 0.509766 25.2037 0.509766 24.8781C0.509766 24.5525 0.583343 24.2301 0.726295 23.9292C0.869248 23.6284 1.07878 23.3551 1.34291 23.1249L6.52742 18.605C6.59345 18.5474 6.67186 18.5017 6.75816 18.4705C6.84447 18.4393 6.93698 18.4233 7.03041 18.4233C7.12384 18.4233 7.21635 18.4393 7.30266 18.4705C7.38896 18.5017 7.46737 18.5474 7.5334 18.605L13.7239 24.0019C13.8621 24.1223 14.0274 24.2166 14.2093 24.2789C14.3912 24.3412 14.5859 24.3701 14.7812 24.3638C14.9765 24.3576 15.1682 24.3163 15.3444 24.2426C15.5206 24.1688 15.6774 24.0642 15.8052 23.9352C16.0387 23.6897 16.1574 23.3764 16.1376 23.0579C16.1179 22.7394 15.9611 22.4391 15.6985 22.2169L9.54357 16.851C9.41062 16.7348 9.33595 16.5774 9.33595 16.4133C9.33595 16.2492 9.41062 16.0918 9.54357 15.9756L12.2096 13.6514C12.2756 13.5937 12.354 13.548 12.4403 13.5168C12.5266 13.4856 12.6192 13.4696 12.7126 13.4696C12.806 13.4696 12.8985 13.4856 12.9848 13.5168C13.0711 13.548 13.1495 13.5937 13.2156 13.6514L19.4061 19.0482C19.5443 19.1686 19.7095 19.2629 19.8914 19.3252C20.0733 19.3875 20.268 19.4164 20.4633 19.4102C20.6586 19.4039 20.8504 19.3626 21.0266 19.2889C21.2027 19.2151 21.3596 19.1105 21.4873 18.9816C21.7208 18.736 21.8396 18.4227 21.8198 18.1042C21.8 17.7857 21.6432 17.4854 21.3807 17.2632L15.2329 11.8927C15.0999 11.7765 15.0252 11.6191 15.0252 11.455C15.0252 11.2908 15.0999 11.1334 15.2329 11.0172L17.8989 8.69302C18.0321 8.57711 18.2127 8.51202 18.401 8.51202C18.5892 8.51202 18.7698 8.57711 18.9031 8.69302L25.0936 14.0899C25.2318 14.2105 25.3972 14.3051 25.5792 14.3675C25.7613 14.4299 25.9562 14.4589 26.1517 14.4527C26.3473 14.4464 26.5392 14.405 26.7156 14.3311C26.8919 14.2573 27.0489 14.1524 27.1766 14.0232C27.4099 13.7775 27.5283 13.4641 27.5082 13.1455C27.4881 12.827 27.331 12.5268 27.0682 12.3049L20.9204 6.93436C20.7874 6.81817 20.7127 6.66075 20.7127 6.49663C20.7127 6.33252 20.7874 6.1751 20.9204 6.05891L26.1049 1.53908C26.3689 1.3088 26.6825 1.12614 27.0275 1.00151C27.3726 0.876888 27.7424 0.812744 28.1159 0.812744C28.4894 0.812744 28.8593 0.876888 29.2043 1.00151C29.5494 1.12614 29.8629 1.3088 30.127 1.53908L39.4918 9.70173C39.756 9.93195 39.9655 10.2053 40.1084 10.5061C40.2514 10.8069 40.325 11.1294 40.325 11.455C40.325 11.7806 40.2514 12.103 40.1084 12.4038C39.9655 12.7047 39.756 12.978 39.4918 13.2082Z" fill="white"/>
</svg>
