<svg width="47" height="43" viewBox="0 0 47 43" fill="none" xmlns="http://www.w3.org/2000/svg">
<path d="M24.0108 8.50595C23.8741 8.38634 23.6923 8.31958 23.5031 8.31958C23.314 8.31958 23.1322 8.38634 22.9955 8.50595L6.0957 23.2763C6.02393 23.3391 5.96683 23.4146 5.92786 23.4982C5.88889 23.5817 5.86885 23.6717 5.86896 23.7625L5.86621 37.625C5.86621 38.3378 6.1757 39.0214 6.72658 39.5254C7.27747 40.0294 8.02464 40.3125 8.80371 40.3125H17.6254C18.0149 40.3125 18.3885 40.1709 18.664 39.9189C18.9394 39.6669 19.0941 39.3251 19.0941 38.9688V27.5469C19.0941 27.3687 19.1715 27.1978 19.3092 27.0718C19.447 26.9458 19.6337 26.875 19.8285 26.875H27.1723C27.367 26.875 27.5538 26.9458 27.6915 27.0718C27.8293 27.1978 27.9066 27.3687 27.9066 27.5469V38.9688C27.9066 39.3251 28.0614 39.6669 28.3368 39.9189C28.6123 40.1709 28.9859 40.3125 29.3754 40.3125H38.1934C38.9725 40.3125 39.7196 40.0294 40.2705 39.5254C40.8214 39.0214 41.1309 38.3378 41.1309 37.625V23.7625C41.131 23.6717 41.111 23.5817 41.072 23.4982C41.033 23.4146 40.9759 23.3391 40.9042 23.2763L24.0108 8.50595Z" fill="#FFFEFE"/>
<path d="M45.064 20.5048L38.1976 14.4949V5.375C38.1976 5.01862 38.0429 4.67683 37.7674 4.42483C37.492 4.17282 37.1184 4.03125 36.7289 4.03125H32.3226C31.9331 4.03125 31.5595 4.17282 31.2841 4.42483C31.0086 4.67683 30.8539 5.01862 30.8539 5.375V8.0625L25.537 3.41145C25.0395 2.95121 24.2996 2.6875 23.5 2.6875C22.7032 2.6875 21.9652 2.95121 21.4677 3.41229L1.94246 20.5031C1.37148 21.007 1.29988 21.8359 1.81945 22.3818C1.94992 22.5196 2.10967 22.6317 2.28899 22.7112C2.4683 22.7907 2.66343 22.836 2.86248 22.8443C3.06154 22.8527 3.26037 22.8239 3.44686 22.7596C3.63336 22.6954 3.80363 22.5972 3.9473 22.4709L22.9951 5.81844C23.1318 5.69883 23.3137 5.63207 23.5028 5.63207C23.6919 5.63207 23.8738 5.69883 24.0104 5.81844L43.0601 22.4709C43.3407 22.7171 43.7166 22.8514 44.1053 22.8445C44.494 22.8376 44.8639 22.6899 45.1338 22.4339C45.6974 21.8998 45.6506 21.0179 45.064 20.5048Z" fill="white"/>
</svg>
