<svg width="34" height="39" viewBox="0 0 34 39" fill="none" xmlns="http://www.w3.org/2000/svg">
<mask id="path-1-inside-1_254_4637" fill="white">
<path fill-rule="evenodd" clip-rule="evenodd" d="M33.4702 17.0415C33.4702 7.99786 25.9965 0.666504 16.7772 0.666504C7.59801 0.666504 0.176907 7.86967 0.0848425 16.8736C0.0153552 23.6739 4.17239 29.529 10.1367 32.0684C11.1347 32.4934 11.9884 33.189 12.6001 34.0716L15.5868 38.3819C16.158 39.206 17.3962 39.206 17.9673 38.3819L20.954 34.0717C21.5638 33.1918 22.413 32.4954 23.4083 32.0724C29.3283 29.5559 33.4702 23.7736 33.4702 17.0415ZM25.2775 17.0418C25.2775 21.6471 21.4717 25.3804 16.777 25.3804C12.0822 25.3804 8.27637 21.6471 8.27637 17.0418C8.27637 12.4365 12.0822 8.70314 16.777 8.70314C21.4717 8.70314 25.2775 12.4365 25.2775 17.0418Z"/>
</mask>
<path fill-rule="evenodd" clip-rule="evenodd" d="M33.4702 17.0415C33.4702 7.99786 25.9965 0.666504 16.7772 0.666504C7.59801 0.666504 0.176907 7.86967 0.0848425 16.8736C0.0153552 23.6739 4.17239 29.529 10.1367 32.0684C11.1347 32.4934 11.9884 33.189 12.6001 34.0716L15.5868 38.3819C16.158 39.206 17.3962 39.206 17.9673 38.3819L20.954 34.0717C21.5638 33.1918 22.413 32.4954 23.4083 32.0724C29.3283 29.5559 33.4702 23.7736 33.4702 17.0415ZM25.2775 17.0418C25.2775 21.6471 21.4717 25.3804 16.777 25.3804C12.0822 25.3804 8.27637 21.6471 8.27637 17.0418C8.27637 12.4365 12.0822 8.70314 16.777 8.70314C21.4717 8.70314 25.2775 12.4365 25.2775 17.0418Z" fill="white"/>
<path d="M0.0848425 16.8736L-1.91505 16.8531L-1.91505 16.8531L0.0848425 16.8736ZM10.1367 32.0684L10.9202 30.2283L10.9201 30.2283L10.1367 32.0684ZM12.6001 34.0716L14.244 32.9325L14.2439 32.9325L12.6001 34.0716ZM15.5868 38.3819L13.9429 39.521L13.943 39.5211L15.5868 38.3819ZM17.9673 38.3819L19.6112 39.5211L19.6112 39.521L17.9673 38.3819ZM20.954 34.0717L19.3101 32.9326L19.3101 32.9326L20.954 34.0717ZM23.4083 32.0724L24.1906 33.9131L24.1907 33.913L23.4083 32.0724ZM16.7772 2.6665C24.9284 2.6665 31.4702 9.13851 31.4702 17.0415H35.4702C35.4702 6.85721 27.0647 -1.3335 16.7772 -1.3335V2.6665ZM2.08474 16.894C2.16522 9.02281 8.65809 2.6665 16.7772 2.6665V-1.3335C6.53793 -1.3335 -1.81141 6.71653 -1.91505 16.8531L2.08474 16.894ZM10.9201 30.2283C5.65647 27.9872 2.024 22.8384 2.08474 16.894L-1.91505 16.8531C-1.99329 24.5093 2.6883 31.0709 9.35317 33.9086L10.9201 30.2283ZM14.2439 32.9325C13.4162 31.7381 12.2636 30.8003 10.9202 30.2283L9.35315 33.9086C10.0058 34.1865 10.5605 34.6399 10.9562 35.2108L14.2439 32.9325ZM17.2307 37.2428L14.244 32.9325L10.9562 35.2108L13.9429 39.521L17.2307 37.2428ZM16.3235 37.2427C16.5477 36.9191 17.0064 36.9191 17.2307 37.2427L13.943 39.5211C15.3095 41.493 18.2447 41.493 19.6112 39.5211L16.3235 37.2427ZM19.3101 32.9326L16.3234 37.2428L19.6112 39.521L22.5979 35.2108L19.3101 32.9326ZM22.6259 30.2318C21.2803 30.8037 20.1334 31.7446 19.3101 32.9326L22.5979 35.2108C22.9942 34.639 23.5457 34.1871 24.1906 33.9131L22.6259 30.2318ZM31.4702 17.0415C31.4702 22.9259 27.8505 28.0109 22.6258 30.2318L24.1907 33.913C30.8061 31.101 35.4702 24.6214 35.4702 17.0415H31.4702ZM16.777 27.3804C22.5398 27.3804 27.2775 22.7877 27.2775 17.0418H23.2775C23.2775 20.5064 20.4036 23.3804 16.777 23.3804V27.3804ZM6.27637 17.0418C6.27637 22.7877 11.0141 27.3804 16.777 27.3804V23.3804C13.1503 23.3804 10.2764 20.5064 10.2764 17.0418H6.27637ZM16.777 6.70314C11.0141 6.70314 6.27637 11.2958 6.27637 17.0418H10.2764C10.2764 13.5771 13.1503 10.7031 16.777 10.7031V6.70314ZM27.2775 17.0418C27.2775 11.2958 22.5398 6.70314 16.777 6.70314V10.7031C20.4036 10.7031 23.2775 13.5771 23.2775 17.0418H27.2775Z" fill="white" mask="url(#path-1-inside-1_254_4637)"/>
</svg>
