<svg width="36" height="36" viewBox="0 0 36 36" fill="none" xmlns="http://www.w3.org/2000/svg">
<g clip-path="url(#clip0_56_2906)">
<path d="M22 33V19.5L33.47 8C33.6409 7.82987 33.7759 7.62712 33.867 7.4038C33.958 7.18048 34.0033 6.94114 34 6.7V5C34 4.73478 33.8946 4.48043 33.7071 4.29289C33.5196 4.10536 33.2652 4 33 4H3C2.73478 4 2.48043 4.10536 2.29289 4.29289C2.10536 4.48043 2 4.73478 2 5V6.67C2.00148 7.14682 2.19209 7.60358 2.53 7.94L14 19.58V29.78L22 33Z" fill="#219AD0"/>
<path d="M33.48 4H2.48003C2.34917 4.0101 2.22696 4.06931 2.13793 4.16575C2.0489 4.2622 1.99964 4.38875 2.00003 4.52V6.24C1.99883 6.41629 2.03269 6.59107 2.09964 6.75416C2.1666 6.91725 2.26531 7.0654 2.39003 7.19L14.39 19.19V29.19L21.64 32.8V19.17L33.64 7.17C33.8696 6.92237 33.9981 6.59768 34 6.26V4.52C34 4.38209 33.9452 4.24982 33.8477 4.1523C33.7502 4.05479 33.6179 4 33.48 4Z" fill="#219AD0"/>
</g>
<defs>
<clipPath id="clip0_56_2906">
<rect width="36" height="36" fill="white"/>
</clipPath>
</defs>
</svg>
